<svg width="20" height="20" viewBox="0 0 20 20" fill="none" xmlns="http://www.w3.org/2000/svg">
<path d="M0.625 16.875C0.625 13.7684 3.1434 11.25 6.25 11.25C9.3566 11.25 11.875 13.7684 11.875 16.875M13.1775 12.5567C14.5899 12.0361 16.1676 12.2387 17.4026 13.0993C18.6377 13.9599 19.3742 15.3697 19.375 16.875M6.25 10C8.14848 10 9.6875 8.46098 9.6875 6.5625C9.6875 4.66402 8.14848 3.125 6.25 3.125C4.35152 3.125 2.8125 4.66402 2.8125 6.5625C2.8125 8.46098 4.35152 10 6.25 10ZM14.7725 11.25C16.3258 11.25 17.585 9.9908 17.585 8.4375C17.585 6.8842 16.3258 5.625 14.7725 5.625C13.2192 5.625 11.96 6.8842 11.96 8.4375C11.96 9.9908 13.2192 11.25 14.7725 11.25Z" stroke="#969EAC" stroke-linecap="round" stroke-linejoin="round"/>
</svg>
